%TF.GenerationSoftware,KiCad,Pcbnew,5.1.9+dfsg1-1*%
%TF.CreationDate,2021-09-16T09:21:50+02:00*%
%TF.ProjectId,switch,73776974-6368-42e6-9b69-6361645f7063,rev?*%
%TF.SameCoordinates,Original*%
%TF.FileFunction,Copper,L1,Top*%
%TF.FilePolarity,Positive*%
%FSLAX46Y46*%
G04 Gerber Fmt 4.6, Leading zero omitted, Abs format (unit mm)*
G04 Created by KiCad (PCBNEW 5.1.9+dfsg1-1) date 2021-09-16 09:21:50*
%MOMM*%
%LPD*%
G01*
G04 APERTURE LIST*
%TA.AperFunction,NonConductor*%
%ADD10C,0.150000*%
%TD*%
%TA.AperFunction,SMDPad,CuDef*%
%ADD11R,0.650000X1.060000*%
%TD*%
%TA.AperFunction,SMDPad,CuDef*%
%ADD12C,1.700000*%
%TD*%
%TA.AperFunction,SMDPad,CuDef*%
%ADD13R,1.700000X1.700000*%
%TD*%
%TA.AperFunction,SMDPad,CuDef*%
%ADD14R,2.540000X1.500000*%
%TD*%
%TA.AperFunction,SMDPad,CuDef*%
%ADD15R,1.500000X1.000000*%
%TD*%
%TA.AperFunction,ViaPad*%
%ADD16C,0.800000*%
%TD*%
%TA.AperFunction,Conductor*%
%ADD17C,0.350000*%
%TD*%
%TA.AperFunction,Conductor*%
%ADD18C,0.600000*%
%TD*%
%TA.AperFunction,Conductor*%
%ADD19C,0.254000*%
%TD*%
%TA.AperFunction,Conductor*%
%ADD20C,0.100000*%
%TD*%
G04 APERTURE END LIST*
D10*
X134378952Y-93905428D02*
X134531333Y-93905428D01*
X134607523Y-93934000D01*
X134683714Y-93991142D01*
X134721809Y-94105428D01*
X134721809Y-94305428D01*
X134683714Y-94419714D01*
X134607523Y-94476857D01*
X134531333Y-94505428D01*
X134378952Y-94505428D01*
X134302761Y-94476857D01*
X134226571Y-94419714D01*
X134188476Y-94305428D01*
X134188476Y-94105428D01*
X134226571Y-93991142D01*
X134302761Y-93934000D01*
X134378952Y-93905428D01*
X135064666Y-94505428D02*
X135064666Y-93905428D01*
X135064666Y-94191142D02*
X135521809Y-94191142D01*
X135521809Y-94505428D02*
X135521809Y-93905428D01*
X135864666Y-93962571D02*
X135902761Y-93934000D01*
X135978952Y-93905428D01*
X136169428Y-93905428D01*
X136245619Y-93934000D01*
X136283714Y-93962571D01*
X136321809Y-94019714D01*
X136321809Y-94076857D01*
X136283714Y-94162571D01*
X135826571Y-94505428D01*
X136321809Y-94505428D01*
X137083714Y-94505428D02*
X136626571Y-94505428D01*
X136855142Y-94505428D02*
X136855142Y-93905428D01*
X136778952Y-93991142D01*
X136702761Y-94048285D01*
X136626571Y-94076857D01*
X137578952Y-93905428D02*
X137655142Y-93905428D01*
X137731333Y-93934000D01*
X137769428Y-93962571D01*
X137807523Y-94019714D01*
X137845619Y-94134000D01*
X137845619Y-94276857D01*
X137807523Y-94391142D01*
X137769428Y-94448285D01*
X137731333Y-94476857D01*
X137655142Y-94505428D01*
X137578952Y-94505428D01*
X137502761Y-94476857D01*
X137464666Y-94448285D01*
X137426571Y-94391142D01*
X137388476Y-94276857D01*
X137388476Y-94134000D01*
X137426571Y-94019714D01*
X137464666Y-93962571D01*
X137502761Y-93934000D01*
X137578952Y-93905428D01*
X138226571Y-94505428D02*
X138378952Y-94505428D01*
X138455142Y-94476857D01*
X138493238Y-94448285D01*
X138569428Y-94362571D01*
X138607523Y-94248285D01*
X138607523Y-94019714D01*
X138569428Y-93962571D01*
X138531333Y-93934000D01*
X138455142Y-93905428D01*
X138302761Y-93905428D01*
X138226571Y-93934000D01*
X138188476Y-93962571D01*
X138150380Y-94019714D01*
X138150380Y-94162571D01*
X138188476Y-94219714D01*
X138226571Y-94248285D01*
X138302761Y-94276857D01*
X138455142Y-94276857D01*
X138531333Y-94248285D01*
X138569428Y-94219714D01*
X138607523Y-94162571D01*
D11*
%TO.P,U1,1*%
%TO.N,Net-(C1-Pad1)*%
X142560000Y-88730000D03*
%TO.P,U1,2*%
%TO.N,GND*%
X143510000Y-88730000D03*
%TO.P,U1,3*%
%TO.N,Net-(C1-Pad1)*%
X144460000Y-88730000D03*
%TO.P,U1,4*%
%TO.N,Net-(U1-Pad4)*%
X144460000Y-86530000D03*
%TO.P,U1,5*%
%TO.N,/3V3*%
X142560000Y-86530000D03*
%TD*%
D12*
%TO.P,J3,2*%
%TO.N,Net-(IC1-Pad4)*%
X151130000Y-92075000D03*
%TO.P,J3,3*%
%TO.N,Net-(IC1-Pad3)*%
X153670000Y-92075000D03*
D13*
%TO.P,J3,1*%
%TO.N,GND*%
X148590000Y-92075000D03*
%TD*%
%TO.P,IC1,1*%
%TO.N,Net-(IC1-Pad1)*%
%TA.AperFunction,SMDPad,CuDef*%
G36*
G01*
X148165000Y-85455000D02*
X148165000Y-85255000D01*
G75*
G02*
X148265000Y-85155000I100000J0D01*
G01*
X149540000Y-85155000D01*
G75*
G02*
X149640000Y-85255000I0J-100000D01*
G01*
X149640000Y-85455000D01*
G75*
G02*
X149540000Y-85555000I-100000J0D01*
G01*
X148265000Y-85555000D01*
G75*
G02*
X148165000Y-85455000I0J100000D01*
G01*
G37*
%TD.AperFunction*%
%TO.P,IC1,2*%
%TO.N,Net-(IC1-Pad2)*%
%TA.AperFunction,SMDPad,CuDef*%
G36*
G01*
X148165000Y-86105000D02*
X148165000Y-85905000D01*
G75*
G02*
X148265000Y-85805000I100000J0D01*
G01*
X149540000Y-85805000D01*
G75*
G02*
X149640000Y-85905000I0J-100000D01*
G01*
X149640000Y-86105000D01*
G75*
G02*
X149540000Y-86205000I-100000J0D01*
G01*
X148265000Y-86205000D01*
G75*
G02*
X148165000Y-86105000I0J100000D01*
G01*
G37*
%TD.AperFunction*%
%TO.P,IC1,3*%
%TO.N,Net-(IC1-Pad3)*%
%TA.AperFunction,SMDPad,CuDef*%
G36*
G01*
X148165000Y-86755000D02*
X148165000Y-86555000D01*
G75*
G02*
X148265000Y-86455000I100000J0D01*
G01*
X149540000Y-86455000D01*
G75*
G02*
X149640000Y-86555000I0J-100000D01*
G01*
X149640000Y-86755000D01*
G75*
G02*
X149540000Y-86855000I-100000J0D01*
G01*
X148265000Y-86855000D01*
G75*
G02*
X148165000Y-86755000I0J100000D01*
G01*
G37*
%TD.AperFunction*%
%TO.P,IC1,4*%
%TO.N,Net-(IC1-Pad4)*%
%TA.AperFunction,SMDPad,CuDef*%
G36*
G01*
X148165000Y-87405000D02*
X148165000Y-87205000D01*
G75*
G02*
X148265000Y-87105000I100000J0D01*
G01*
X149540000Y-87105000D01*
G75*
G02*
X149640000Y-87205000I0J-100000D01*
G01*
X149640000Y-87405000D01*
G75*
G02*
X149540000Y-87505000I-100000J0D01*
G01*
X148265000Y-87505000D01*
G75*
G02*
X148165000Y-87405000I0J100000D01*
G01*
G37*
%TD.AperFunction*%
%TO.P,IC1,5*%
%TO.N,/3V3*%
%TA.AperFunction,SMDPad,CuDef*%
G36*
G01*
X148165000Y-88055000D02*
X148165000Y-87855000D01*
G75*
G02*
X148265000Y-87755000I100000J0D01*
G01*
X149540000Y-87755000D01*
G75*
G02*
X149640000Y-87855000I0J-100000D01*
G01*
X149640000Y-88055000D01*
G75*
G02*
X149540000Y-88155000I-100000J0D01*
G01*
X148265000Y-88155000D01*
G75*
G02*
X148165000Y-88055000I0J100000D01*
G01*
G37*
%TD.AperFunction*%
%TO.P,IC1,6*%
%TO.N,GND*%
%TA.AperFunction,SMDPad,CuDef*%
G36*
G01*
X148165000Y-88705000D02*
X148165000Y-88505000D01*
G75*
G02*
X148265000Y-88405000I100000J0D01*
G01*
X149540000Y-88405000D01*
G75*
G02*
X149640000Y-88505000I0J-100000D01*
G01*
X149640000Y-88705000D01*
G75*
G02*
X149540000Y-88805000I-100000J0D01*
G01*
X148265000Y-88805000D01*
G75*
G02*
X148165000Y-88705000I0J100000D01*
G01*
G37*
%TD.AperFunction*%
%TO.P,IC1,7*%
%TO.N,Net-(IC1-Pad7)*%
%TA.AperFunction,SMDPad,CuDef*%
G36*
G01*
X148165000Y-89355000D02*
X148165000Y-89155000D01*
G75*
G02*
X148265000Y-89055000I100000J0D01*
G01*
X149540000Y-89055000D01*
G75*
G02*
X149640000Y-89155000I0J-100000D01*
G01*
X149640000Y-89355000D01*
G75*
G02*
X149540000Y-89455000I-100000J0D01*
G01*
X148265000Y-89455000D01*
G75*
G02*
X148165000Y-89355000I0J100000D01*
G01*
G37*
%TD.AperFunction*%
%TO.P,IC1,8*%
%TO.N,Net-(IC1-Pad8)*%
%TA.AperFunction,SMDPad,CuDef*%
G36*
G01*
X148165000Y-90005000D02*
X148165000Y-89805000D01*
G75*
G02*
X148265000Y-89705000I100000J0D01*
G01*
X149540000Y-89705000D01*
G75*
G02*
X149640000Y-89805000I0J-100000D01*
G01*
X149640000Y-90005000D01*
G75*
G02*
X149540000Y-90105000I-100000J0D01*
G01*
X148265000Y-90105000D01*
G75*
G02*
X148165000Y-90005000I0J100000D01*
G01*
G37*
%TD.AperFunction*%
%TO.P,IC1,9*%
%TO.N,/SIG*%
%TA.AperFunction,SMDPad,CuDef*%
G36*
G01*
X153890000Y-90005000D02*
X153890000Y-89805000D01*
G75*
G02*
X153990000Y-89705000I100000J0D01*
G01*
X155265000Y-89705000D01*
G75*
G02*
X155365000Y-89805000I0J-100000D01*
G01*
X155365000Y-90005000D01*
G75*
G02*
X155265000Y-90105000I-100000J0D01*
G01*
X153990000Y-90105000D01*
G75*
G02*
X153890000Y-90005000I0J100000D01*
G01*
G37*
%TD.AperFunction*%
%TO.P,IC1,10*%
%TO.N,Net-(IC1-Pad10)*%
%TA.AperFunction,SMDPad,CuDef*%
G36*
G01*
X153890000Y-89355000D02*
X153890000Y-89155000D01*
G75*
G02*
X153990000Y-89055000I100000J0D01*
G01*
X155265000Y-89055000D01*
G75*
G02*
X155365000Y-89155000I0J-100000D01*
G01*
X155365000Y-89355000D01*
G75*
G02*
X155265000Y-89455000I-100000J0D01*
G01*
X153990000Y-89455000D01*
G75*
G02*
X153890000Y-89355000I0J100000D01*
G01*
G37*
%TD.AperFunction*%
%TO.P,IC1,11*%
%TO.N,Net-(IC1-Pad11)*%
%TA.AperFunction,SMDPad,CuDef*%
G36*
G01*
X153890000Y-88705000D02*
X153890000Y-88505000D01*
G75*
G02*
X153990000Y-88405000I100000J0D01*
G01*
X155265000Y-88405000D01*
G75*
G02*
X155365000Y-88505000I0J-100000D01*
G01*
X155365000Y-88705000D01*
G75*
G02*
X155265000Y-88805000I-100000J0D01*
G01*
X153990000Y-88805000D01*
G75*
G02*
X153890000Y-88705000I0J100000D01*
G01*
G37*
%TD.AperFunction*%
%TO.P,IC1,12*%
%TO.N,Net-(IC1-Pad12)*%
%TA.AperFunction,SMDPad,CuDef*%
G36*
G01*
X153890000Y-88055000D02*
X153890000Y-87855000D01*
G75*
G02*
X153990000Y-87755000I100000J0D01*
G01*
X155265000Y-87755000D01*
G75*
G02*
X155365000Y-87855000I0J-100000D01*
G01*
X155365000Y-88055000D01*
G75*
G02*
X155265000Y-88155000I-100000J0D01*
G01*
X153990000Y-88155000D01*
G75*
G02*
X153890000Y-88055000I0J100000D01*
G01*
G37*
%TD.AperFunction*%
%TO.P,IC1,13*%
%TO.N,Net-(IC1-Pad13)*%
%TA.AperFunction,SMDPad,CuDef*%
G36*
G01*
X153890000Y-87405000D02*
X153890000Y-87205000D01*
G75*
G02*
X153990000Y-87105000I100000J0D01*
G01*
X155265000Y-87105000D01*
G75*
G02*
X155365000Y-87205000I0J-100000D01*
G01*
X155365000Y-87405000D01*
G75*
G02*
X155265000Y-87505000I-100000J0D01*
G01*
X153990000Y-87505000D01*
G75*
G02*
X153890000Y-87405000I0J100000D01*
G01*
G37*
%TD.AperFunction*%
%TO.P,IC1,14*%
%TO.N,Net-(IC1-Pad14)*%
%TA.AperFunction,SMDPad,CuDef*%
G36*
G01*
X153890000Y-86755000D02*
X153890000Y-86555000D01*
G75*
G02*
X153990000Y-86455000I100000J0D01*
G01*
X155265000Y-86455000D01*
G75*
G02*
X155365000Y-86555000I0J-100000D01*
G01*
X155365000Y-86755000D01*
G75*
G02*
X155265000Y-86855000I-100000J0D01*
G01*
X153990000Y-86855000D01*
G75*
G02*
X153890000Y-86755000I0J100000D01*
G01*
G37*
%TD.AperFunction*%
%TO.P,IC1,15*%
%TO.N,Net-(D1-Pad2)*%
%TA.AperFunction,SMDPad,CuDef*%
G36*
G01*
X153890000Y-86105000D02*
X153890000Y-85905000D01*
G75*
G02*
X153990000Y-85805000I100000J0D01*
G01*
X155265000Y-85805000D01*
G75*
G02*
X155365000Y-85905000I0J-100000D01*
G01*
X155365000Y-86105000D01*
G75*
G02*
X155265000Y-86205000I-100000J0D01*
G01*
X153990000Y-86205000D01*
G75*
G02*
X153890000Y-86105000I0J100000D01*
G01*
G37*
%TD.AperFunction*%
%TO.P,IC1,16*%
%TO.N,Net-(IC1-Pad16)*%
%TA.AperFunction,SMDPad,CuDef*%
G36*
G01*
X153890000Y-85455000D02*
X153890000Y-85255000D01*
G75*
G02*
X153990000Y-85155000I100000J0D01*
G01*
X155265000Y-85155000D01*
G75*
G02*
X155365000Y-85255000I0J-100000D01*
G01*
X155365000Y-85455000D01*
G75*
G02*
X155265000Y-85555000I-100000J0D01*
G01*
X153990000Y-85555000D01*
G75*
G02*
X153890000Y-85455000I0J100000D01*
G01*
G37*
%TD.AperFunction*%
%TD*%
%TO.P,R1,1*%
%TO.N,Net-(J2-Pad3)*%
%TA.AperFunction,SMDPad,CuDef*%
G36*
G01*
X139745000Y-92350000D02*
X139745000Y-91800000D01*
G75*
G02*
X139945000Y-91600000I200000J0D01*
G01*
X140345000Y-91600000D01*
G75*
G02*
X140545000Y-91800000I0J-200000D01*
G01*
X140545000Y-92350000D01*
G75*
G02*
X140345000Y-92550000I-200000J0D01*
G01*
X139945000Y-92550000D01*
G75*
G02*
X139745000Y-92350000I0J200000D01*
G01*
G37*
%TD.AperFunction*%
%TO.P,R1,2*%
%TO.N,/SIG*%
%TA.AperFunction,SMDPad,CuDef*%
G36*
G01*
X141395000Y-92350000D02*
X141395000Y-91800000D01*
G75*
G02*
X141595000Y-91600000I200000J0D01*
G01*
X141995000Y-91600000D01*
G75*
G02*
X142195000Y-91800000I0J-200000D01*
G01*
X142195000Y-92350000D01*
G75*
G02*
X141995000Y-92550000I-200000J0D01*
G01*
X141595000Y-92550000D01*
G75*
G02*
X141395000Y-92350000I0J200000D01*
G01*
G37*
%TD.AperFunction*%
%TD*%
%TO.P,R2,2*%
%TO.N,GND*%
%TA.AperFunction,SMDPad,CuDef*%
G36*
G01*
X145205000Y-92350000D02*
X145205000Y-91800000D01*
G75*
G02*
X145405000Y-91600000I200000J0D01*
G01*
X145805000Y-91600000D01*
G75*
G02*
X146005000Y-91800000I0J-200000D01*
G01*
X146005000Y-92350000D01*
G75*
G02*
X145805000Y-92550000I-200000J0D01*
G01*
X145405000Y-92550000D01*
G75*
G02*
X145205000Y-92350000I0J200000D01*
G01*
G37*
%TD.AperFunction*%
%TO.P,R2,1*%
%TO.N,/SIG*%
%TA.AperFunction,SMDPad,CuDef*%
G36*
G01*
X143555000Y-92350000D02*
X143555000Y-91800000D01*
G75*
G02*
X143755000Y-91600000I200000J0D01*
G01*
X144155000Y-91600000D01*
G75*
G02*
X144355000Y-91800000I0J-200000D01*
G01*
X144355000Y-92350000D01*
G75*
G02*
X144155000Y-92550000I-200000J0D01*
G01*
X143755000Y-92550000D01*
G75*
G02*
X143555000Y-92350000I0J200000D01*
G01*
G37*
%TD.AperFunction*%
%TD*%
D14*
%TO.P,J2,1*%
%TO.N,GND*%
X136525000Y-86995000D03*
%TO.P,J2,2*%
%TO.N,Net-(C1-Pad1)*%
X136525000Y-88900000D03*
%TO.P,J2,3*%
%TO.N,Net-(J2-Pad3)*%
X136525000Y-90805000D03*
%TD*%
%TO.P,C1,1*%
%TO.N,Net-(C1-Pad1)*%
%TA.AperFunction,SMDPad,CuDef*%
G36*
G01*
X140810000Y-89080000D02*
X139860000Y-89080000D01*
G75*
G02*
X139610000Y-88830000I0J250000D01*
G01*
X139610000Y-88330000D01*
G75*
G02*
X139860000Y-88080000I250000J0D01*
G01*
X140810000Y-88080000D01*
G75*
G02*
X141060000Y-88330000I0J-250000D01*
G01*
X141060000Y-88830000D01*
G75*
G02*
X140810000Y-89080000I-250000J0D01*
G01*
G37*
%TD.AperFunction*%
%TO.P,C1,2*%
%TO.N,GND*%
%TA.AperFunction,SMDPad,CuDef*%
G36*
G01*
X140810000Y-87180000D02*
X139860000Y-87180000D01*
G75*
G02*
X139610000Y-86930000I0J250000D01*
G01*
X139610000Y-86430000D01*
G75*
G02*
X139860000Y-86180000I250000J0D01*
G01*
X140810000Y-86180000D01*
G75*
G02*
X141060000Y-86430000I0J-250000D01*
G01*
X141060000Y-86930000D01*
G75*
G02*
X140810000Y-87180000I-250000J0D01*
G01*
G37*
%TD.AperFunction*%
%TD*%
%TO.P,C2,2*%
%TO.N,GND*%
%TA.AperFunction,SMDPad,CuDef*%
G36*
G01*
X146210000Y-88080000D02*
X147160000Y-88080000D01*
G75*
G02*
X147410000Y-88330000I0J-250000D01*
G01*
X147410000Y-88830000D01*
G75*
G02*
X147160000Y-89080000I-250000J0D01*
G01*
X146210000Y-89080000D01*
G75*
G02*
X145960000Y-88830000I0J250000D01*
G01*
X145960000Y-88330000D01*
G75*
G02*
X146210000Y-88080000I250000J0D01*
G01*
G37*
%TD.AperFunction*%
%TO.P,C2,1*%
%TO.N,/3V3*%
%TA.AperFunction,SMDPad,CuDef*%
G36*
G01*
X146210000Y-86180000D02*
X147160000Y-86180000D01*
G75*
G02*
X147410000Y-86430000I0J-250000D01*
G01*
X147410000Y-86930000D01*
G75*
G02*
X147160000Y-87180000I-250000J0D01*
G01*
X146210000Y-87180000D01*
G75*
G02*
X145960000Y-86930000I0J250000D01*
G01*
X145960000Y-86430000D01*
G75*
G02*
X146210000Y-86180000I250000J0D01*
G01*
G37*
%TD.AperFunction*%
%TD*%
D15*
%TO.P,JP1,2*%
%TO.N,Net-(IC1-Pad10)*%
X156464000Y-89550000D03*
%TO.P,JP1,1*%
%TO.N,Net-(D1-Pad2)*%
X156464000Y-88250000D03*
%TD*%
D16*
%TO.N,GND*%
X139700000Y-85090000D03*
X153035000Y-88265000D03*
X156210000Y-90789998D03*
X139954000Y-90170000D03*
%TO.N,Net-(D1-Pad2)*%
X156210000Y-87010002D03*
%TO.N,Net-(IC1-Pad16)*%
X152400000Y-84455000D03*
%TD*%
D17*
%TO.N,Net-(C1-Pad1)*%
X139840000Y-88900000D02*
X140335000Y-88405000D01*
X135890000Y-88900000D02*
X139840000Y-88900000D01*
X142410000Y-88580000D02*
X142560000Y-88730000D01*
X140335000Y-88580000D02*
X142410000Y-88580000D01*
X142560000Y-88059998D02*
X142560000Y-88730000D01*
X142844999Y-87774999D02*
X142560000Y-88059998D01*
X144460000Y-88059998D02*
X144175001Y-87774999D01*
X144175001Y-87774999D02*
X142844999Y-87774999D01*
X144460000Y-88730000D02*
X144460000Y-88059998D01*
%TO.N,GND*%
X150495000Y-90170000D02*
X148590000Y-92075000D01*
X150495000Y-88900000D02*
X150495000Y-90170000D01*
X150200000Y-88605000D02*
X150495000Y-88900000D01*
X148902500Y-88605000D02*
X150200000Y-88605000D01*
X146710000Y-88605000D02*
X146685000Y-88580000D01*
X148902500Y-88605000D02*
X146710000Y-88605000D01*
X140335000Y-86680000D02*
X140335000Y-85090000D01*
X140335000Y-85090000D02*
X139700000Y-85090000D01*
D18*
X143510000Y-88730000D02*
X143510000Y-89535000D01*
X142875000Y-90170000D02*
X139954000Y-90170000D01*
X143510000Y-89535000D02*
X142875000Y-90170000D01*
X134655000Y-86995000D02*
X134366000Y-87284000D01*
X136525000Y-86995000D02*
X134655000Y-86995000D01*
X134366000Y-87284000D02*
X134366000Y-92710000D01*
X134366000Y-92710000D02*
X138255393Y-92710000D01*
X138255393Y-92710000D02*
X138684000Y-92710000D01*
X138684000Y-92710000D02*
X139700000Y-93726000D01*
D17*
%TO.N,/3V3*%
X147960000Y-87955000D02*
X146685000Y-86680000D01*
X148902500Y-87955000D02*
X147960000Y-87955000D01*
X146685000Y-86680000D02*
X145579999Y-85574999D01*
X143515001Y-85574999D02*
X142560000Y-86530000D01*
X145579999Y-85574999D02*
X143515001Y-85574999D01*
%TO.N,Net-(D1-Pad2)*%
X155770683Y-86005000D02*
X154627500Y-86005000D01*
X156210000Y-86444317D02*
X155770683Y-86005000D01*
X156210000Y-87010002D02*
X156210000Y-86444317D01*
X156210000Y-87996000D02*
X156464000Y-88250000D01*
X156210000Y-87010002D02*
X156210000Y-87996000D01*
%TO.N,/SIG*%
X141795000Y-92075000D02*
X143955000Y-92075000D01*
X154945001Y-90222501D02*
X154627500Y-89905000D01*
X154282001Y-93350001D02*
X154945001Y-92687001D01*
X145230001Y-93350001D02*
X154282001Y-93350001D01*
X154945001Y-92687001D02*
X154945001Y-90222501D01*
X143955000Y-92075000D02*
X145230001Y-93350001D01*
%TO.N,Net-(IC1-Pad3)*%
X148902500Y-86655000D02*
X150297831Y-86655000D01*
X150297831Y-86655000D02*
X151765000Y-88122169D01*
X151765000Y-88122169D02*
X151765000Y-90170000D01*
X151765000Y-90170000D02*
X153670000Y-92075000D01*
%TO.N,Net-(IC1-Pad4)*%
X148902500Y-87305000D02*
X150170000Y-87305000D01*
X150170000Y-87305000D02*
X151130000Y-88265000D01*
X151130000Y-88265000D02*
X151130000Y-92075000D01*
%TO.N,Net-(IC1-Pad10)*%
X156169000Y-89255000D02*
X156464000Y-89550000D01*
X154627500Y-89255000D02*
X156169000Y-89255000D01*
%TO.N,Net-(IC1-Pad16)*%
X153300000Y-85355000D02*
X152400000Y-84455000D01*
X154627500Y-85355000D02*
X153300000Y-85355000D01*
%TO.N,Net-(J2-Pad3)*%
X138875000Y-90805000D02*
X140145000Y-92075000D01*
X135890000Y-90805000D02*
X138875000Y-90805000D01*
%TD*%
D19*
%TO.N,GND*%
X158090000Y-94590000D02*
X139469905Y-94590000D01*
X139469905Y-93129500D01*
X134010000Y-93129500D01*
X134010000Y-88150000D01*
X134616928Y-88150000D01*
X134616928Y-89650000D01*
X134629188Y-89774482D01*
X134652855Y-89852500D01*
X134629188Y-89930518D01*
X134616928Y-90055000D01*
X134616928Y-91555000D01*
X134629188Y-91679482D01*
X134665498Y-91799180D01*
X134724463Y-91909494D01*
X134803815Y-92006185D01*
X134900506Y-92085537D01*
X135010820Y-92144502D01*
X135130518Y-92180812D01*
X135255000Y-92193072D01*
X137795000Y-92193072D01*
X137919482Y-92180812D01*
X138039180Y-92144502D01*
X138149494Y-92085537D01*
X138246185Y-92006185D01*
X138325537Y-91909494D01*
X138384502Y-91799180D01*
X138420812Y-91679482D01*
X138427163Y-91615000D01*
X138539488Y-91615000D01*
X139106928Y-92182441D01*
X139106928Y-92350000D01*
X139123031Y-92513500D01*
X139170722Y-92670716D01*
X139248169Y-92815608D01*
X139352394Y-92942606D01*
X139479392Y-93046831D01*
X139624284Y-93124278D01*
X139781500Y-93171969D01*
X139945000Y-93188072D01*
X140345000Y-93188072D01*
X140508500Y-93171969D01*
X140665716Y-93124278D01*
X140810608Y-93046831D01*
X140937606Y-92942606D01*
X140970000Y-92903134D01*
X141002394Y-92942606D01*
X141129392Y-93046831D01*
X141274284Y-93124278D01*
X141431500Y-93171969D01*
X141595000Y-93188072D01*
X141995000Y-93188072D01*
X142158500Y-93171969D01*
X142315716Y-93124278D01*
X142460608Y-93046831D01*
X142587606Y-92942606D01*
X142634882Y-92885000D01*
X143115118Y-92885000D01*
X143162394Y-92942606D01*
X143289392Y-93046831D01*
X143434284Y-93124278D01*
X143591500Y-93171969D01*
X143755000Y-93188072D01*
X143922560Y-93188072D01*
X144629106Y-93894619D01*
X144654473Y-93925529D01*
X144685381Y-93950894D01*
X144777812Y-94026750D01*
X144918527Y-94101964D01*
X144954064Y-94112744D01*
X145071213Y-94148281D01*
X145190210Y-94160001D01*
X145190213Y-94160001D01*
X145230001Y-94163920D01*
X145269789Y-94160001D01*
X154242213Y-94160001D01*
X154282001Y-94163920D01*
X154321789Y-94160001D01*
X154321792Y-94160001D01*
X154440789Y-94148281D01*
X154593474Y-94101964D01*
X154734190Y-94026750D01*
X154857529Y-93925529D01*
X154882900Y-93894614D01*
X155489620Y-93287895D01*
X155520529Y-93262529D01*
X155621750Y-93139190D01*
X155675555Y-93038528D01*
X155696964Y-92998475D01*
X155743281Y-92845789D01*
X155758920Y-92687001D01*
X155755001Y-92647210D01*
X155755001Y-90688072D01*
X157214000Y-90688072D01*
X157338482Y-90675812D01*
X157458180Y-90639502D01*
X157568494Y-90580537D01*
X157665185Y-90501185D01*
X157744537Y-90404494D01*
X157803502Y-90294180D01*
X157839812Y-90174482D01*
X157852072Y-90050000D01*
X157852072Y-89050000D01*
X157839812Y-88925518D01*
X157832071Y-88900000D01*
X157839812Y-88874482D01*
X157852072Y-88750000D01*
X157852072Y-87750000D01*
X157839812Y-87625518D01*
X157803502Y-87505820D01*
X157744537Y-87395506D01*
X157665185Y-87298815D01*
X157568494Y-87219463D01*
X157458180Y-87160498D01*
X157338482Y-87124188D01*
X157244407Y-87114923D01*
X157245000Y-87111941D01*
X157245000Y-86908063D01*
X157205226Y-86708104D01*
X157127205Y-86519746D01*
X157014776Y-86351483D01*
X157008280Y-86285529D01*
X156961963Y-86132844D01*
X156886749Y-85992128D01*
X156785528Y-85868789D01*
X156754612Y-85843417D01*
X156371583Y-85460388D01*
X156346211Y-85429472D01*
X156222872Y-85328251D01*
X156082156Y-85253037D01*
X156000437Y-85228248D01*
X155988890Y-85111009D01*
X155946890Y-84972552D01*
X155878684Y-84844949D01*
X155786896Y-84733104D01*
X155675051Y-84641316D01*
X155547448Y-84573110D01*
X155408991Y-84531110D01*
X155265000Y-84516928D01*
X153990000Y-84516928D01*
X153846009Y-84531110D01*
X153800219Y-84545000D01*
X153635513Y-84545000D01*
X153432871Y-84342359D01*
X153395226Y-84153102D01*
X153317205Y-83964744D01*
X153203937Y-83795226D01*
X153059774Y-83651063D01*
X152890256Y-83537795D01*
X152701898Y-83459774D01*
X152501939Y-83420000D01*
X152298061Y-83420000D01*
X152098102Y-83459774D01*
X151909744Y-83537795D01*
X151740226Y-83651063D01*
X151596063Y-83795226D01*
X151482795Y-83964744D01*
X151404774Y-84153102D01*
X151365000Y-84353061D01*
X151365000Y-84556939D01*
X151404774Y-84756898D01*
X151482795Y-84945256D01*
X151596063Y-85114774D01*
X151740226Y-85258937D01*
X151909744Y-85372205D01*
X152098102Y-85450226D01*
X152287359Y-85487871D01*
X152699105Y-85899618D01*
X152724472Y-85930528D01*
X152778664Y-85975002D01*
X152847810Y-86031749D01*
X152916912Y-86068684D01*
X152988527Y-86106963D01*
X153141212Y-86153280D01*
X153257814Y-86164764D01*
X153266110Y-86248991D01*
X153290684Y-86330000D01*
X153266110Y-86411009D01*
X153251928Y-86555000D01*
X153251928Y-86755000D01*
X153266110Y-86898991D01*
X153290684Y-86980000D01*
X153266110Y-87061009D01*
X153251928Y-87205000D01*
X153251928Y-87405000D01*
X153266110Y-87548991D01*
X153290684Y-87630000D01*
X153266110Y-87711009D01*
X153251928Y-87855000D01*
X153251928Y-88055000D01*
X153266110Y-88198991D01*
X153290684Y-88280000D01*
X153266110Y-88361009D01*
X153251928Y-88505000D01*
X153251928Y-88705000D01*
X153258625Y-88773000D01*
X152575000Y-88773000D01*
X152575000Y-88161956D01*
X152578919Y-88122168D01*
X152574324Y-88075518D01*
X152563280Y-87963381D01*
X152516963Y-87810696D01*
X152481951Y-87745193D01*
X152441749Y-87669979D01*
X152389834Y-87606721D01*
X152340528Y-87546641D01*
X152309619Y-87521275D01*
X150898730Y-86110387D01*
X150873359Y-86079472D01*
X150750020Y-85978251D01*
X150609304Y-85903037D01*
X150456619Y-85856720D01*
X150337622Y-85845000D01*
X150337619Y-85845000D01*
X150297831Y-85841081D01*
X150272027Y-85843623D01*
X150263890Y-85761009D01*
X150239316Y-85680000D01*
X150263890Y-85598991D01*
X150278072Y-85455000D01*
X150278072Y-85255000D01*
X150263890Y-85111009D01*
X150221890Y-84972552D01*
X150153684Y-84844949D01*
X150061896Y-84733104D01*
X149950051Y-84641316D01*
X149822448Y-84573110D01*
X149683991Y-84531110D01*
X149540000Y-84516928D01*
X148265000Y-84516928D01*
X148121009Y-84531110D01*
X147982552Y-84573110D01*
X147854949Y-84641316D01*
X147743104Y-84733104D01*
X147651316Y-84844949D01*
X147583110Y-84972552D01*
X147541110Y-85111009D01*
X147526928Y-85255000D01*
X147526928Y-85455000D01*
X147541110Y-85598991D01*
X147552909Y-85637889D01*
X147499850Y-85609528D01*
X147333254Y-85558992D01*
X147160000Y-85541928D01*
X146692440Y-85541928D01*
X146180898Y-85030386D01*
X146155527Y-84999471D01*
X146032188Y-84898250D01*
X145891472Y-84823036D01*
X145738787Y-84776719D01*
X145619790Y-84764999D01*
X145619787Y-84764999D01*
X145579999Y-84761080D01*
X145540211Y-84764999D01*
X143554788Y-84764999D01*
X143515000Y-84761080D01*
X143475212Y-84764999D01*
X143475210Y-84764999D01*
X143356213Y-84776719D01*
X143203528Y-84823036D01*
X143162532Y-84844949D01*
X143062811Y-84898250D01*
X143007211Y-84943880D01*
X142939473Y-84999471D01*
X142914106Y-85030381D01*
X142582559Y-85361928D01*
X142235000Y-85361928D01*
X142110518Y-85374188D01*
X141990820Y-85410498D01*
X141880506Y-85469463D01*
X141783815Y-85548815D01*
X141704463Y-85645506D01*
X141645498Y-85755820D01*
X141609188Y-85875518D01*
X141596928Y-86000000D01*
X141596928Y-87060000D01*
X141609188Y-87184482D01*
X141645498Y-87304180D01*
X141704463Y-87414494D01*
X141783815Y-87511185D01*
X141880506Y-87590537D01*
X141892267Y-87596823D01*
X141883251Y-87607809D01*
X141850020Y-87669981D01*
X141826690Y-87713628D01*
X141783815Y-87748815D01*
X141766429Y-87770000D01*
X141493737Y-87770000D01*
X141437962Y-87702038D01*
X141303386Y-87591595D01*
X141149850Y-87509528D01*
X140983254Y-87458992D01*
X140810000Y-87441928D01*
X139860000Y-87441928D01*
X139686746Y-87458992D01*
X139520150Y-87509528D01*
X139366614Y-87591595D01*
X139232038Y-87702038D01*
X139121595Y-87836614D01*
X139039528Y-87990150D01*
X139009239Y-88090000D01*
X138427163Y-88090000D01*
X138420812Y-88025518D01*
X138384502Y-87905820D01*
X138325537Y-87795506D01*
X138246185Y-87698815D01*
X138149494Y-87619463D01*
X138039180Y-87560498D01*
X137919482Y-87524188D01*
X137795000Y-87511928D01*
X135255000Y-87511928D01*
X135130518Y-87524188D01*
X135010820Y-87560498D01*
X134900506Y-87619463D01*
X134803815Y-87698815D01*
X134724463Y-87795506D01*
X134665498Y-87905820D01*
X134629188Y-88025518D01*
X134616928Y-88150000D01*
X134010000Y-88150000D01*
X134010000Y-83210000D01*
X158090001Y-83210000D01*
X158090000Y-94590000D01*
%TA.AperFunction,Conductor*%
D20*
G36*
X158090000Y-94590000D02*
G01*
X139469905Y-94590000D01*
X139469905Y-93129500D01*
X134010000Y-93129500D01*
X134010000Y-88150000D01*
X134616928Y-88150000D01*
X134616928Y-89650000D01*
X134629188Y-89774482D01*
X134652855Y-89852500D01*
X134629188Y-89930518D01*
X134616928Y-90055000D01*
X134616928Y-91555000D01*
X134629188Y-91679482D01*
X134665498Y-91799180D01*
X134724463Y-91909494D01*
X134803815Y-92006185D01*
X134900506Y-92085537D01*
X135010820Y-92144502D01*
X135130518Y-92180812D01*
X135255000Y-92193072D01*
X137795000Y-92193072D01*
X137919482Y-92180812D01*
X138039180Y-92144502D01*
X138149494Y-92085537D01*
X138246185Y-92006185D01*
X138325537Y-91909494D01*
X138384502Y-91799180D01*
X138420812Y-91679482D01*
X138427163Y-91615000D01*
X138539488Y-91615000D01*
X139106928Y-92182441D01*
X139106928Y-92350000D01*
X139123031Y-92513500D01*
X139170722Y-92670716D01*
X139248169Y-92815608D01*
X139352394Y-92942606D01*
X139479392Y-93046831D01*
X139624284Y-93124278D01*
X139781500Y-93171969D01*
X139945000Y-93188072D01*
X140345000Y-93188072D01*
X140508500Y-93171969D01*
X140665716Y-93124278D01*
X140810608Y-93046831D01*
X140937606Y-92942606D01*
X140970000Y-92903134D01*
X141002394Y-92942606D01*
X141129392Y-93046831D01*
X141274284Y-93124278D01*
X141431500Y-93171969D01*
X141595000Y-93188072D01*
X141995000Y-93188072D01*
X142158500Y-93171969D01*
X142315716Y-93124278D01*
X142460608Y-93046831D01*
X142587606Y-92942606D01*
X142634882Y-92885000D01*
X143115118Y-92885000D01*
X143162394Y-92942606D01*
X143289392Y-93046831D01*
X143434284Y-93124278D01*
X143591500Y-93171969D01*
X143755000Y-93188072D01*
X143922560Y-93188072D01*
X144629106Y-93894619D01*
X144654473Y-93925529D01*
X144685381Y-93950894D01*
X144777812Y-94026750D01*
X144918527Y-94101964D01*
X144954064Y-94112744D01*
X145071213Y-94148281D01*
X145190210Y-94160001D01*
X145190213Y-94160001D01*
X145230001Y-94163920D01*
X145269789Y-94160001D01*
X154242213Y-94160001D01*
X154282001Y-94163920D01*
X154321789Y-94160001D01*
X154321792Y-94160001D01*
X154440789Y-94148281D01*
X154593474Y-94101964D01*
X154734190Y-94026750D01*
X154857529Y-93925529D01*
X154882900Y-93894614D01*
X155489620Y-93287895D01*
X155520529Y-93262529D01*
X155621750Y-93139190D01*
X155675555Y-93038528D01*
X155696964Y-92998475D01*
X155743281Y-92845789D01*
X155758920Y-92687001D01*
X155755001Y-92647210D01*
X155755001Y-90688072D01*
X157214000Y-90688072D01*
X157338482Y-90675812D01*
X157458180Y-90639502D01*
X157568494Y-90580537D01*
X157665185Y-90501185D01*
X157744537Y-90404494D01*
X157803502Y-90294180D01*
X157839812Y-90174482D01*
X157852072Y-90050000D01*
X157852072Y-89050000D01*
X157839812Y-88925518D01*
X157832071Y-88900000D01*
X157839812Y-88874482D01*
X157852072Y-88750000D01*
X157852072Y-87750000D01*
X157839812Y-87625518D01*
X157803502Y-87505820D01*
X157744537Y-87395506D01*
X157665185Y-87298815D01*
X157568494Y-87219463D01*
X157458180Y-87160498D01*
X157338482Y-87124188D01*
X157244407Y-87114923D01*
X157245000Y-87111941D01*
X157245000Y-86908063D01*
X157205226Y-86708104D01*
X157127205Y-86519746D01*
X157014776Y-86351483D01*
X157008280Y-86285529D01*
X156961963Y-86132844D01*
X156886749Y-85992128D01*
X156785528Y-85868789D01*
X156754612Y-85843417D01*
X156371583Y-85460388D01*
X156346211Y-85429472D01*
X156222872Y-85328251D01*
X156082156Y-85253037D01*
X156000437Y-85228248D01*
X155988890Y-85111009D01*
X155946890Y-84972552D01*
X155878684Y-84844949D01*
X155786896Y-84733104D01*
X155675051Y-84641316D01*
X155547448Y-84573110D01*
X155408991Y-84531110D01*
X155265000Y-84516928D01*
X153990000Y-84516928D01*
X153846009Y-84531110D01*
X153800219Y-84545000D01*
X153635513Y-84545000D01*
X153432871Y-84342359D01*
X153395226Y-84153102D01*
X153317205Y-83964744D01*
X153203937Y-83795226D01*
X153059774Y-83651063D01*
X152890256Y-83537795D01*
X152701898Y-83459774D01*
X152501939Y-83420000D01*
X152298061Y-83420000D01*
X152098102Y-83459774D01*
X151909744Y-83537795D01*
X151740226Y-83651063D01*
X151596063Y-83795226D01*
X151482795Y-83964744D01*
X151404774Y-84153102D01*
X151365000Y-84353061D01*
X151365000Y-84556939D01*
X151404774Y-84756898D01*
X151482795Y-84945256D01*
X151596063Y-85114774D01*
X151740226Y-85258937D01*
X151909744Y-85372205D01*
X152098102Y-85450226D01*
X152287359Y-85487871D01*
X152699105Y-85899618D01*
X152724472Y-85930528D01*
X152778664Y-85975002D01*
X152847810Y-86031749D01*
X152916912Y-86068684D01*
X152988527Y-86106963D01*
X153141212Y-86153280D01*
X153257814Y-86164764D01*
X153266110Y-86248991D01*
X153290684Y-86330000D01*
X153266110Y-86411009D01*
X153251928Y-86555000D01*
X153251928Y-86755000D01*
X153266110Y-86898991D01*
X153290684Y-86980000D01*
X153266110Y-87061009D01*
X153251928Y-87205000D01*
X153251928Y-87405000D01*
X153266110Y-87548991D01*
X153290684Y-87630000D01*
X153266110Y-87711009D01*
X153251928Y-87855000D01*
X153251928Y-88055000D01*
X153266110Y-88198991D01*
X153290684Y-88280000D01*
X153266110Y-88361009D01*
X153251928Y-88505000D01*
X153251928Y-88705000D01*
X153258625Y-88773000D01*
X152575000Y-88773000D01*
X152575000Y-88161956D01*
X152578919Y-88122168D01*
X152574324Y-88075518D01*
X152563280Y-87963381D01*
X152516963Y-87810696D01*
X152481951Y-87745193D01*
X152441749Y-87669979D01*
X152389834Y-87606721D01*
X152340528Y-87546641D01*
X152309619Y-87521275D01*
X150898730Y-86110387D01*
X150873359Y-86079472D01*
X150750020Y-85978251D01*
X150609304Y-85903037D01*
X150456619Y-85856720D01*
X150337622Y-85845000D01*
X150337619Y-85845000D01*
X150297831Y-85841081D01*
X150272027Y-85843623D01*
X150263890Y-85761009D01*
X150239316Y-85680000D01*
X150263890Y-85598991D01*
X150278072Y-85455000D01*
X150278072Y-85255000D01*
X150263890Y-85111009D01*
X150221890Y-84972552D01*
X150153684Y-84844949D01*
X150061896Y-84733104D01*
X149950051Y-84641316D01*
X149822448Y-84573110D01*
X149683991Y-84531110D01*
X149540000Y-84516928D01*
X148265000Y-84516928D01*
X148121009Y-84531110D01*
X147982552Y-84573110D01*
X147854949Y-84641316D01*
X147743104Y-84733104D01*
X147651316Y-84844949D01*
X147583110Y-84972552D01*
X147541110Y-85111009D01*
X147526928Y-85255000D01*
X147526928Y-85455000D01*
X147541110Y-85598991D01*
X147552909Y-85637889D01*
X147499850Y-85609528D01*
X147333254Y-85558992D01*
X147160000Y-85541928D01*
X146692440Y-85541928D01*
X146180898Y-85030386D01*
X146155527Y-84999471D01*
X146032188Y-84898250D01*
X145891472Y-84823036D01*
X145738787Y-84776719D01*
X145619790Y-84764999D01*
X145619787Y-84764999D01*
X145579999Y-84761080D01*
X145540211Y-84764999D01*
X143554788Y-84764999D01*
X143515000Y-84761080D01*
X143475212Y-84764999D01*
X143475210Y-84764999D01*
X143356213Y-84776719D01*
X143203528Y-84823036D01*
X143162532Y-84844949D01*
X143062811Y-84898250D01*
X143007211Y-84943880D01*
X142939473Y-84999471D01*
X142914106Y-85030381D01*
X142582559Y-85361928D01*
X142235000Y-85361928D01*
X142110518Y-85374188D01*
X141990820Y-85410498D01*
X141880506Y-85469463D01*
X141783815Y-85548815D01*
X141704463Y-85645506D01*
X141645498Y-85755820D01*
X141609188Y-85875518D01*
X141596928Y-86000000D01*
X141596928Y-87060000D01*
X141609188Y-87184482D01*
X141645498Y-87304180D01*
X141704463Y-87414494D01*
X141783815Y-87511185D01*
X141880506Y-87590537D01*
X141892267Y-87596823D01*
X141883251Y-87607809D01*
X141850020Y-87669981D01*
X141826690Y-87713628D01*
X141783815Y-87748815D01*
X141766429Y-87770000D01*
X141493737Y-87770000D01*
X141437962Y-87702038D01*
X141303386Y-87591595D01*
X141149850Y-87509528D01*
X140983254Y-87458992D01*
X140810000Y-87441928D01*
X139860000Y-87441928D01*
X139686746Y-87458992D01*
X139520150Y-87509528D01*
X139366614Y-87591595D01*
X139232038Y-87702038D01*
X139121595Y-87836614D01*
X139039528Y-87990150D01*
X139009239Y-88090000D01*
X138427163Y-88090000D01*
X138420812Y-88025518D01*
X138384502Y-87905820D01*
X138325537Y-87795506D01*
X138246185Y-87698815D01*
X138149494Y-87619463D01*
X138039180Y-87560498D01*
X137919482Y-87524188D01*
X137795000Y-87511928D01*
X135255000Y-87511928D01*
X135130518Y-87524188D01*
X135010820Y-87560498D01*
X134900506Y-87619463D01*
X134803815Y-87698815D01*
X134724463Y-87795506D01*
X134665498Y-87905820D01*
X134629188Y-88025518D01*
X134616928Y-88150000D01*
X134010000Y-88150000D01*
X134010000Y-83210000D01*
X158090001Y-83210000D01*
X158090000Y-94590000D01*
G37*
%TD.AperFunction*%
D19*
X145389528Y-87269850D02*
X145471595Y-87423386D01*
X145582038Y-87557962D01*
X145716614Y-87668405D01*
X145870150Y-87750472D01*
X146036746Y-87801008D01*
X146210000Y-87818072D01*
X146677560Y-87818072D01*
X147359105Y-88499618D01*
X147384472Y-88530528D01*
X147422179Y-88561473D01*
X147507810Y-88631749D01*
X147562330Y-88660890D01*
X147648527Y-88706963D01*
X147675720Y-88715212D01*
X147651316Y-88744949D01*
X147583110Y-88872552D01*
X147541110Y-89011009D01*
X147526928Y-89155000D01*
X147526928Y-89355000D01*
X147541110Y-89498991D01*
X147565684Y-89580000D01*
X147541110Y-89661009D01*
X147526928Y-89805000D01*
X147526928Y-90005000D01*
X147541110Y-90148991D01*
X147583110Y-90287448D01*
X147651316Y-90415051D01*
X147743104Y-90526896D01*
X147854949Y-90618684D01*
X147982552Y-90686890D01*
X148121009Y-90728890D01*
X148265000Y-90743072D01*
X149540000Y-90743072D01*
X149683991Y-90728890D01*
X149822448Y-90686890D01*
X149950051Y-90618684D01*
X150061896Y-90526896D01*
X150153684Y-90415051D01*
X150221890Y-90287448D01*
X150263890Y-90148991D01*
X150278072Y-90005000D01*
X150278072Y-89805000D01*
X150263890Y-89661009D01*
X150239316Y-89580000D01*
X150263890Y-89498991D01*
X150278072Y-89355000D01*
X150278072Y-89155000D01*
X150263890Y-89011009D01*
X150221890Y-88872552D01*
X150153684Y-88744949D01*
X150061896Y-88633104D01*
X150027651Y-88605000D01*
X150061896Y-88576896D01*
X150153684Y-88465051D01*
X150164431Y-88444944D01*
X150320000Y-88600513D01*
X150320001Y-90830230D01*
X150183368Y-90921525D01*
X149976525Y-91128368D01*
X149814010Y-91371589D01*
X149702068Y-91641842D01*
X149645000Y-91928740D01*
X149645000Y-92221260D01*
X149702068Y-92508158D01*
X149715258Y-92540001D01*
X145565514Y-92540001D01*
X144993072Y-91967560D01*
X144993072Y-91800000D01*
X144976969Y-91636500D01*
X144929278Y-91479284D01*
X144851831Y-91334392D01*
X144747606Y-91207394D01*
X144620608Y-91103169D01*
X144475716Y-91025722D01*
X144318500Y-90978031D01*
X144155000Y-90961928D01*
X143755000Y-90961928D01*
X143591500Y-90978031D01*
X143434284Y-91025722D01*
X143289392Y-91103169D01*
X143162394Y-91207394D01*
X143115118Y-91265000D01*
X142634882Y-91265000D01*
X142587606Y-91207394D01*
X142460608Y-91103169D01*
X142315716Y-91025722D01*
X142158500Y-90978031D01*
X141995000Y-90961928D01*
X141595000Y-90961928D01*
X141431500Y-90978031D01*
X141274284Y-91025722D01*
X141129392Y-91103169D01*
X141002394Y-91207394D01*
X140970000Y-91246866D01*
X140937606Y-91207394D01*
X140810608Y-91103169D01*
X140665716Y-91025722D01*
X140508500Y-90978031D01*
X140345000Y-90961928D01*
X140177441Y-90961928D01*
X139475899Y-90260387D01*
X139450528Y-90229472D01*
X139327189Y-90128251D01*
X139319000Y-90123874D01*
X139319000Y-89710000D01*
X139778043Y-89710000D01*
X139860000Y-89718072D01*
X140810000Y-89718072D01*
X140983254Y-89701008D01*
X141149850Y-89650472D01*
X141303386Y-89568405D01*
X141437962Y-89457962D01*
X141493737Y-89390000D01*
X141610862Y-89390000D01*
X141645498Y-89504180D01*
X141704463Y-89614494D01*
X141783815Y-89711185D01*
X141880506Y-89790537D01*
X141990820Y-89849502D01*
X142110518Y-89885812D01*
X142235000Y-89898072D01*
X142885000Y-89898072D01*
X143009482Y-89885812D01*
X143129180Y-89849502D01*
X143239494Y-89790537D01*
X143336185Y-89711185D01*
X143415537Y-89614494D01*
X143474502Y-89504180D01*
X143510000Y-89387159D01*
X143545498Y-89504180D01*
X143604463Y-89614494D01*
X143683815Y-89711185D01*
X143780506Y-89790537D01*
X143890820Y-89849502D01*
X144010518Y-89885812D01*
X144135000Y-89898072D01*
X144785000Y-89898072D01*
X144909482Y-89885812D01*
X145029180Y-89849502D01*
X145139494Y-89790537D01*
X145236185Y-89711185D01*
X145315537Y-89614494D01*
X145374502Y-89504180D01*
X145410812Y-89384482D01*
X145423072Y-89260000D01*
X145423072Y-88200000D01*
X145410812Y-88075518D01*
X145374502Y-87955820D01*
X145315537Y-87845506D01*
X145236185Y-87748815D01*
X145193311Y-87713629D01*
X145136749Y-87607809D01*
X145127733Y-87596823D01*
X145139494Y-87590537D01*
X145236185Y-87511185D01*
X145315537Y-87414494D01*
X145374502Y-87304180D01*
X145387222Y-87262248D01*
X145389528Y-87269850D01*
%TA.AperFunction,Conductor*%
D20*
G36*
X145389528Y-87269850D02*
G01*
X145471595Y-87423386D01*
X145582038Y-87557962D01*
X145716614Y-87668405D01*
X145870150Y-87750472D01*
X146036746Y-87801008D01*
X146210000Y-87818072D01*
X146677560Y-87818072D01*
X147359105Y-88499618D01*
X147384472Y-88530528D01*
X147422179Y-88561473D01*
X147507810Y-88631749D01*
X147562330Y-88660890D01*
X147648527Y-88706963D01*
X147675720Y-88715212D01*
X147651316Y-88744949D01*
X147583110Y-88872552D01*
X147541110Y-89011009D01*
X147526928Y-89155000D01*
X147526928Y-89355000D01*
X147541110Y-89498991D01*
X147565684Y-89580000D01*
X147541110Y-89661009D01*
X147526928Y-89805000D01*
X147526928Y-90005000D01*
X147541110Y-90148991D01*
X147583110Y-90287448D01*
X147651316Y-90415051D01*
X147743104Y-90526896D01*
X147854949Y-90618684D01*
X147982552Y-90686890D01*
X148121009Y-90728890D01*
X148265000Y-90743072D01*
X149540000Y-90743072D01*
X149683991Y-90728890D01*
X149822448Y-90686890D01*
X149950051Y-90618684D01*
X150061896Y-90526896D01*
X150153684Y-90415051D01*
X150221890Y-90287448D01*
X150263890Y-90148991D01*
X150278072Y-90005000D01*
X150278072Y-89805000D01*
X150263890Y-89661009D01*
X150239316Y-89580000D01*
X150263890Y-89498991D01*
X150278072Y-89355000D01*
X150278072Y-89155000D01*
X150263890Y-89011009D01*
X150221890Y-88872552D01*
X150153684Y-88744949D01*
X150061896Y-88633104D01*
X150027651Y-88605000D01*
X150061896Y-88576896D01*
X150153684Y-88465051D01*
X150164431Y-88444944D01*
X150320000Y-88600513D01*
X150320001Y-90830230D01*
X150183368Y-90921525D01*
X149976525Y-91128368D01*
X149814010Y-91371589D01*
X149702068Y-91641842D01*
X149645000Y-91928740D01*
X149645000Y-92221260D01*
X149702068Y-92508158D01*
X149715258Y-92540001D01*
X145565514Y-92540001D01*
X144993072Y-91967560D01*
X144993072Y-91800000D01*
X144976969Y-91636500D01*
X144929278Y-91479284D01*
X144851831Y-91334392D01*
X144747606Y-91207394D01*
X144620608Y-91103169D01*
X144475716Y-91025722D01*
X144318500Y-90978031D01*
X144155000Y-90961928D01*
X143755000Y-90961928D01*
X143591500Y-90978031D01*
X143434284Y-91025722D01*
X143289392Y-91103169D01*
X143162394Y-91207394D01*
X143115118Y-91265000D01*
X142634882Y-91265000D01*
X142587606Y-91207394D01*
X142460608Y-91103169D01*
X142315716Y-91025722D01*
X142158500Y-90978031D01*
X141995000Y-90961928D01*
X141595000Y-90961928D01*
X141431500Y-90978031D01*
X141274284Y-91025722D01*
X141129392Y-91103169D01*
X141002394Y-91207394D01*
X140970000Y-91246866D01*
X140937606Y-91207394D01*
X140810608Y-91103169D01*
X140665716Y-91025722D01*
X140508500Y-90978031D01*
X140345000Y-90961928D01*
X140177441Y-90961928D01*
X139475899Y-90260387D01*
X139450528Y-90229472D01*
X139327189Y-90128251D01*
X139319000Y-90123874D01*
X139319000Y-89710000D01*
X139778043Y-89710000D01*
X139860000Y-89718072D01*
X140810000Y-89718072D01*
X140983254Y-89701008D01*
X141149850Y-89650472D01*
X141303386Y-89568405D01*
X141437962Y-89457962D01*
X141493737Y-89390000D01*
X141610862Y-89390000D01*
X141645498Y-89504180D01*
X141704463Y-89614494D01*
X141783815Y-89711185D01*
X141880506Y-89790537D01*
X141990820Y-89849502D01*
X142110518Y-89885812D01*
X142235000Y-89898072D01*
X142885000Y-89898072D01*
X143009482Y-89885812D01*
X143129180Y-89849502D01*
X143239494Y-89790537D01*
X143336185Y-89711185D01*
X143415537Y-89614494D01*
X143474502Y-89504180D01*
X143510000Y-89387159D01*
X143545498Y-89504180D01*
X143604463Y-89614494D01*
X143683815Y-89711185D01*
X143780506Y-89790537D01*
X143890820Y-89849502D01*
X144010518Y-89885812D01*
X144135000Y-89898072D01*
X144785000Y-89898072D01*
X144909482Y-89885812D01*
X145029180Y-89849502D01*
X145139494Y-89790537D01*
X145236185Y-89711185D01*
X145315537Y-89614494D01*
X145374502Y-89504180D01*
X145410812Y-89384482D01*
X145423072Y-89260000D01*
X145423072Y-88200000D01*
X145410812Y-88075518D01*
X145374502Y-87955820D01*
X145315537Y-87845506D01*
X145236185Y-87748815D01*
X145193311Y-87713629D01*
X145136749Y-87607809D01*
X145127733Y-87596823D01*
X145139494Y-87590537D01*
X145236185Y-87511185D01*
X145315537Y-87414494D01*
X145374502Y-87304180D01*
X145387222Y-87262248D01*
X145389528Y-87269850D01*
G37*
%TD.AperFunction*%
%TD*%
M02*
