%TF.GenerationSoftware,KiCad,Pcbnew,5.1.9+dfsg1-1*%
%TF.CreationDate,2021-09-16T09:21:50+02:00*%
%TF.ProjectId,switch,73776974-6368-42e6-9b69-6361645f7063,rev?*%
%TF.SameCoordinates,Original*%
%TF.FileFunction,Copper,L2,Bot*%
%TF.FilePolarity,Positive*%
%FSLAX46Y46*%
G04 Gerber Fmt 4.6, Leading zero omitted, Abs format (unit mm)*
G04 Created by KiCad (PCBNEW 5.1.9+dfsg1-1) date 2021-09-16 09:21:50*
%MOMM*%
%LPD*%
G01*
G04 APERTURE LIST*
%TA.AperFunction,SMDPad,CuDef*%
%ADD10R,2.200000X1.200000*%
%TD*%
%TA.AperFunction,SMDPad,CuDef*%
%ADD11R,6.400000X5.800000*%
%TD*%
%TA.AperFunction,SMDPad,CuDef*%
%ADD12R,3.810000X2.540000*%
%TD*%
%TA.AperFunction,ViaPad*%
%ADD13C,0.800000*%
%TD*%
%TA.AperFunction,Conductor*%
%ADD14C,2.500000*%
%TD*%
%TA.AperFunction,Conductor*%
%ADD15C,0.350000*%
%TD*%
%TA.AperFunction,Conductor*%
%ADD16C,1.200000*%
%TD*%
%TA.AperFunction,Conductor*%
%ADD17C,0.600000*%
%TD*%
G04 APERTURE END LIST*
D10*
%TO.P,Q1,1*%
%TO.N,Net-(IC1-Pad16)*%
X141850000Y-89910000D03*
%TO.P,Q1,2*%
%TO.N,Net-(J4-Pad1)*%
X141850000Y-87630000D03*
%TO.P,Q1,3*%
%TO.N,GND*%
X141850000Y-85350000D03*
D11*
%TO.P,Q1,2*%
%TO.N,Net-(J4-Pad1)*%
X148150000Y-87630000D03*
%TD*%
%TO.P,D1,1*%
%TO.N,Net-(D1-Pad1)*%
%TA.AperFunction,SMDPad,CuDef*%
G36*
G01*
X157101250Y-90125000D02*
X156588750Y-90125000D01*
G75*
G02*
X156370000Y-89906250I0J218750D01*
G01*
X156370000Y-89468750D01*
G75*
G02*
X156588750Y-89250000I218750J0D01*
G01*
X157101250Y-89250000D01*
G75*
G02*
X157320000Y-89468750I0J-218750D01*
G01*
X157320000Y-89906250D01*
G75*
G02*
X157101250Y-90125000I-218750J0D01*
G01*
G37*
%TD.AperFunction*%
%TO.P,D1,2*%
%TO.N,Net-(D1-Pad2)*%
%TA.AperFunction,SMDPad,CuDef*%
G36*
G01*
X157101250Y-88550000D02*
X156588750Y-88550000D01*
G75*
G02*
X156370000Y-88331250I0J218750D01*
G01*
X156370000Y-87893750D01*
G75*
G02*
X156588750Y-87675000I218750J0D01*
G01*
X157101250Y-87675000D01*
G75*
G02*
X157320000Y-87893750I0J-218750D01*
G01*
X157320000Y-88331250D01*
G75*
G02*
X157101250Y-88550000I-218750J0D01*
G01*
G37*
%TD.AperFunction*%
%TD*%
%TO.P,R3,1*%
%TO.N,Net-(D1-Pad1)*%
%TA.AperFunction,SMDPad,CuDef*%
G36*
G01*
X155530000Y-89260000D02*
X155530000Y-89810000D01*
G75*
G02*
X155330000Y-90010000I-200000J0D01*
G01*
X154930000Y-90010000D01*
G75*
G02*
X154730000Y-89810000I0J200000D01*
G01*
X154730000Y-89260000D01*
G75*
G02*
X154930000Y-89060000I200000J0D01*
G01*
X155330000Y-89060000D01*
G75*
G02*
X155530000Y-89260000I0J-200000D01*
G01*
G37*
%TD.AperFunction*%
%TO.P,R3,2*%
%TO.N,GND*%
%TA.AperFunction,SMDPad,CuDef*%
G36*
G01*
X153880000Y-89260000D02*
X153880000Y-89810000D01*
G75*
G02*
X153680000Y-90010000I-200000J0D01*
G01*
X153280000Y-90010000D01*
G75*
G02*
X153080000Y-89810000I0J200000D01*
G01*
X153080000Y-89260000D01*
G75*
G02*
X153280000Y-89060000I200000J0D01*
G01*
X153680000Y-89060000D01*
G75*
G02*
X153880000Y-89260000I0J-200000D01*
G01*
G37*
%TD.AperFunction*%
%TD*%
D12*
%TO.P,J1,1*%
%TO.N,GND*%
X136525000Y-85090000D03*
%TO.P,J1,2*%
%TO.N,Net-(J1-Pad2)*%
X136525000Y-92710000D03*
%TD*%
%TO.P,J4,2*%
%TO.N,Net-(J1-Pad2)*%
X155575000Y-92710000D03*
%TO.P,J4,1*%
%TO.N,Net-(J4-Pad1)*%
X155575000Y-85090000D03*
%TD*%
D13*
%TO.N,GND*%
X139700000Y-85090000D03*
X153035000Y-88265000D03*
X156210000Y-90789998D03*
X139954000Y-90170000D03*
%TO.N,Net-(D1-Pad2)*%
X156210000Y-87010002D03*
%TO.N,Net-(IC1-Pad16)*%
X152400000Y-84455000D03*
%TD*%
D14*
%TO.N,GND*%
X136525000Y-85090000D02*
X137795000Y-85090000D01*
X137795000Y-85090000D02*
X139700000Y-85090000D01*
D15*
X153480000Y-88710000D02*
X153035000Y-88265000D01*
X153480000Y-89535000D02*
X153480000Y-88710000D01*
X154734998Y-90789998D02*
X156210000Y-90789998D01*
X153480000Y-89535000D02*
X154734998Y-90789998D01*
D16*
X139960000Y-85350000D02*
X139700000Y-85090000D01*
X141850000Y-85350000D02*
X139960000Y-85350000D01*
D17*
X139554001Y-85235999D02*
X139700000Y-85090000D01*
X139554001Y-89770001D02*
X139554001Y-85235999D01*
X139954000Y-90170000D02*
X139554001Y-89770001D01*
D15*
%TO.N,Net-(D1-Pad1)*%
X156692500Y-89535000D02*
X156845000Y-89687500D01*
X155130000Y-89535000D02*
X156692500Y-89535000D01*
%TO.N,Net-(D1-Pad2)*%
X156845000Y-87645002D02*
X156210000Y-87010002D01*
X156845000Y-88112500D02*
X156845000Y-87645002D01*
%TO.N,Net-(IC1-Pad16)*%
X152000001Y-84055001D02*
X152400000Y-84455000D01*
X144859997Y-84055001D02*
X152000001Y-84055001D01*
X144145000Y-84769998D02*
X144859997Y-84055001D01*
X140485010Y-86604999D02*
X140324999Y-86765010D01*
X143060003Y-86604999D02*
X140485010Y-86604999D01*
X144145000Y-85520002D02*
X143060003Y-86604999D01*
X144145000Y-84769998D02*
X144145000Y-85520002D01*
X140324999Y-86765010D02*
X140324999Y-88889999D01*
X141345000Y-89910000D02*
X141850000Y-89910000D01*
X140324999Y-88889999D02*
X141345000Y-89910000D01*
D14*
%TO.N,Net-(J1-Pad2)*%
X136525000Y-92710000D02*
X155575000Y-92710000D01*
%TO.N,Net-(J4-Pad1)*%
X155575000Y-85090000D02*
X154940000Y-85090000D01*
X149424999Y-86355001D02*
X148150000Y-87630000D01*
X153674999Y-86355001D02*
X149424999Y-86355001D01*
X154940000Y-85090000D02*
X153674999Y-86355001D01*
D16*
X141850000Y-87630000D02*
X148150000Y-87630000D01*
%TD*%
M02*
