%TF.GenerationSoftware,KiCad,Pcbnew,5.1.9+dfsg1-1*%
%TF.CreationDate,2021-09-16T09:21:50+02:00*%
%TF.ProjectId,switch,73776974-6368-42e6-9b69-6361645f7063,rev?*%
%TF.SameCoordinates,Original*%
%TF.FileFunction,Legend,Top*%
%TF.FilePolarity,Positive*%
%FSLAX46Y46*%
G04 Gerber Fmt 4.6, Leading zero omitted, Abs format (unit mm)*
G04 Created by KiCad (PCBNEW 5.1.9+dfsg1-1) date 2021-09-16 09:21:50*
%MOMM*%
%LPD*%
G01*
G04 APERTURE LIST*
%ADD10C,0.200000*%
%ADD11C,0.150000*%
%ADD12C,0.175000*%
%ADD13C,0.120000*%
G04 APERTURE END LIST*
D10*
X134411523Y-83648571D02*
X134411523Y-84296190D01*
X134373428Y-84372380D01*
X134335333Y-84410476D01*
X134259142Y-84448571D01*
X134144857Y-84448571D01*
X134068666Y-84410476D01*
X134411523Y-84143809D02*
X134335333Y-84181904D01*
X134182952Y-84181904D01*
X134106761Y-84143809D01*
X134068666Y-84105714D01*
X134030571Y-84029523D01*
X134030571Y-83800952D01*
X134068666Y-83724761D01*
X134106761Y-83686666D01*
X134182952Y-83648571D01*
X134335333Y-83648571D01*
X134411523Y-83686666D01*
X134792476Y-84181904D02*
X134792476Y-83648571D01*
X134792476Y-83381904D02*
X134754380Y-83420000D01*
X134792476Y-83458095D01*
X134830571Y-83420000D01*
X134792476Y-83381904D01*
X134792476Y-83458095D01*
X135059142Y-83648571D02*
X135363904Y-83648571D01*
X135173428Y-83381904D02*
X135173428Y-84067619D01*
X135211523Y-84143809D01*
X135287714Y-84181904D01*
X135363904Y-84181904D01*
X135630571Y-84181904D02*
X135630571Y-83381904D01*
X135973428Y-84181904D02*
X135973428Y-83762857D01*
X135935333Y-83686666D01*
X135859142Y-83648571D01*
X135744857Y-83648571D01*
X135668666Y-83686666D01*
X135630571Y-83724761D01*
X136697238Y-83648571D02*
X136697238Y-84181904D01*
X136354380Y-83648571D02*
X136354380Y-84067619D01*
X136392476Y-84143809D01*
X136468666Y-84181904D01*
X136582952Y-84181904D01*
X136659142Y-84143809D01*
X136697238Y-84105714D01*
X137078190Y-84181904D02*
X137078190Y-83381904D01*
X137078190Y-83686666D02*
X137154380Y-83648571D01*
X137306761Y-83648571D01*
X137382952Y-83686666D01*
X137421047Y-83724761D01*
X137459142Y-83800952D01*
X137459142Y-84029523D01*
X137421047Y-84105714D01*
X137382952Y-84143809D01*
X137306761Y-84181904D01*
X137154380Y-84181904D01*
X137078190Y-84143809D01*
X137802000Y-84105714D02*
X137840095Y-84143809D01*
X137802000Y-84181904D01*
X137763904Y-84143809D01*
X137802000Y-84105714D01*
X137802000Y-84181904D01*
X138525809Y-84143809D02*
X138449619Y-84181904D01*
X138297238Y-84181904D01*
X138221047Y-84143809D01*
X138182952Y-84105714D01*
X138144857Y-84029523D01*
X138144857Y-83800952D01*
X138182952Y-83724761D01*
X138221047Y-83686666D01*
X138297238Y-83648571D01*
X138449619Y-83648571D01*
X138525809Y-83686666D01*
X138982952Y-84181904D02*
X138906761Y-84143809D01*
X138868666Y-84105714D01*
X138830571Y-84029523D01*
X138830571Y-83800952D01*
X138868666Y-83724761D01*
X138906761Y-83686666D01*
X138982952Y-83648571D01*
X139097238Y-83648571D01*
X139173428Y-83686666D01*
X139211523Y-83724761D01*
X139249619Y-83800952D01*
X139249619Y-84029523D01*
X139211523Y-84105714D01*
X139173428Y-84143809D01*
X139097238Y-84181904D01*
X138982952Y-84181904D01*
X139592476Y-84181904D02*
X139592476Y-83648571D01*
X139592476Y-83724761D02*
X139630571Y-83686666D01*
X139706761Y-83648571D01*
X139821047Y-83648571D01*
X139897238Y-83686666D01*
X139935333Y-83762857D01*
X139935333Y-84181904D01*
X139935333Y-83762857D02*
X139973428Y-83686666D01*
X140049619Y-83648571D01*
X140163904Y-83648571D01*
X140240095Y-83686666D01*
X140278190Y-83762857D01*
X140278190Y-84181904D01*
X141230571Y-83343809D02*
X140544857Y-84372380D01*
X141611523Y-84181904D02*
X141535333Y-84143809D01*
X141497238Y-84105714D01*
X141459142Y-84029523D01*
X141459142Y-83800952D01*
X141497238Y-83724761D01*
X141535333Y-83686666D01*
X141611523Y-83648571D01*
X141725809Y-83648571D01*
X141802000Y-83686666D01*
X141840095Y-83724761D01*
X141878190Y-83800952D01*
X141878190Y-84029523D01*
X141840095Y-84105714D01*
X141802000Y-84143809D01*
X141725809Y-84181904D01*
X141611523Y-84181904D01*
X142221047Y-83648571D02*
X142221047Y-84181904D01*
X142221047Y-83724761D02*
X142259142Y-83686666D01*
X142335333Y-83648571D01*
X142449619Y-83648571D01*
X142525809Y-83686666D01*
X142563904Y-83762857D01*
X142563904Y-84181904D01*
X143287714Y-84181904D02*
X143287714Y-83381904D01*
X143287714Y-84143809D02*
X143211523Y-84181904D01*
X143059142Y-84181904D01*
X142982952Y-84143809D01*
X142944857Y-84105714D01*
X142906761Y-84029523D01*
X142906761Y-83800952D01*
X142944857Y-83724761D01*
X142982952Y-83686666D01*
X143059142Y-83648571D01*
X143211523Y-83648571D01*
X143287714Y-83686666D01*
X143668666Y-84181904D02*
X143668666Y-83648571D01*
X143668666Y-83800952D02*
X143706761Y-83724761D01*
X143744857Y-83686666D01*
X143821047Y-83648571D01*
X143897238Y-83648571D01*
X144468666Y-84143809D02*
X144392476Y-84181904D01*
X144240095Y-84181904D01*
X144163904Y-84143809D01*
X144125809Y-84067619D01*
X144125809Y-83762857D01*
X144163904Y-83686666D01*
X144240095Y-83648571D01*
X144392476Y-83648571D01*
X144468666Y-83686666D01*
X144506761Y-83762857D01*
X144506761Y-83839047D01*
X144125809Y-83915238D01*
X144849619Y-83648571D02*
X144849619Y-84334285D01*
X144811523Y-84410476D01*
X144735333Y-84448571D01*
X144697238Y-84448571D01*
X144849619Y-83381904D02*
X144811523Y-83420000D01*
X144849619Y-83458095D01*
X144887714Y-83420000D01*
X144849619Y-83381904D01*
X144849619Y-83458095D01*
X145230571Y-84181904D02*
X145230571Y-83381904D01*
X145573428Y-84181904D02*
X145573428Y-83762857D01*
X145535333Y-83686666D01*
X145459142Y-83648571D01*
X145344857Y-83648571D01*
X145268666Y-83686666D01*
X145230571Y-83724761D01*
X146525809Y-83343809D02*
X145840095Y-84372380D01*
X146792476Y-84181904D02*
X146792476Y-83648571D01*
X146792476Y-83800952D02*
X146830571Y-83724761D01*
X146868666Y-83686666D01*
X146944857Y-83648571D01*
X147021047Y-83648571D01*
X147630571Y-84143809D02*
X147554380Y-84181904D01*
X147402000Y-84181904D01*
X147325809Y-84143809D01*
X147287714Y-84105714D01*
X147249619Y-84029523D01*
X147249619Y-83800952D01*
X147287714Y-83724761D01*
X147325809Y-83686666D01*
X147402000Y-83648571D01*
X147554380Y-83648571D01*
X147630571Y-83686666D01*
X147782952Y-84258095D02*
X148392476Y-84258095D01*
X148544857Y-84143809D02*
X148621047Y-84181904D01*
X148773428Y-84181904D01*
X148849619Y-84143809D01*
X148887714Y-84067619D01*
X148887714Y-84029523D01*
X148849619Y-83953333D01*
X148773428Y-83915238D01*
X148659142Y-83915238D01*
X148582952Y-83877142D01*
X148544857Y-83800952D01*
X148544857Y-83762857D01*
X148582952Y-83686666D01*
X148659142Y-83648571D01*
X148773428Y-83648571D01*
X148849619Y-83686666D01*
X149154380Y-83648571D02*
X149306761Y-84181904D01*
X149459142Y-83800952D01*
X149611523Y-84181904D01*
X149763904Y-83648571D01*
X150068666Y-84181904D02*
X150068666Y-83648571D01*
X150068666Y-83381904D02*
X150030571Y-83420000D01*
X150068666Y-83458095D01*
X150106761Y-83420000D01*
X150068666Y-83381904D01*
X150068666Y-83458095D01*
X150335333Y-83648571D02*
X150640095Y-83648571D01*
X150449619Y-83381904D02*
X150449619Y-84067619D01*
X150487714Y-84143809D01*
X150563904Y-84181904D01*
X150640095Y-84181904D01*
X151249619Y-84143809D02*
X151173428Y-84181904D01*
X151021047Y-84181904D01*
X150944857Y-84143809D01*
X150906761Y-84105714D01*
X150868666Y-84029523D01*
X150868666Y-83800952D01*
X150906761Y-83724761D01*
X150944857Y-83686666D01*
X151021047Y-83648571D01*
X151173428Y-83648571D01*
X151249619Y-83686666D01*
X151592476Y-84181904D02*
X151592476Y-83381904D01*
X151935333Y-84181904D02*
X151935333Y-83762857D01*
X151897238Y-83686666D01*
X151821047Y-83648571D01*
X151706761Y-83648571D01*
X151630571Y-83686666D01*
X151592476Y-83724761D01*
D11*
X134378952Y-93905428D02*
X134531333Y-93905428D01*
X134607523Y-93934000D01*
X134683714Y-93991142D01*
X134721809Y-94105428D01*
X134721809Y-94305428D01*
X134683714Y-94419714D01*
X134607523Y-94476857D01*
X134531333Y-94505428D01*
X134378952Y-94505428D01*
X134302761Y-94476857D01*
X134226571Y-94419714D01*
X134188476Y-94305428D01*
X134188476Y-94105428D01*
X134226571Y-93991142D01*
X134302761Y-93934000D01*
X134378952Y-93905428D01*
X135064666Y-94505428D02*
X135064666Y-93905428D01*
X135064666Y-94191142D02*
X135521809Y-94191142D01*
X135521809Y-94505428D02*
X135521809Y-93905428D01*
X135864666Y-93962571D02*
X135902761Y-93934000D01*
X135978952Y-93905428D01*
X136169428Y-93905428D01*
X136245619Y-93934000D01*
X136283714Y-93962571D01*
X136321809Y-94019714D01*
X136321809Y-94076857D01*
X136283714Y-94162571D01*
X135826571Y-94505428D01*
X136321809Y-94505428D01*
X137083714Y-94505428D02*
X136626571Y-94505428D01*
X136855142Y-94505428D02*
X136855142Y-93905428D01*
X136778952Y-93991142D01*
X136702761Y-94048285D01*
X136626571Y-94076857D01*
X137578952Y-93905428D02*
X137655142Y-93905428D01*
X137731333Y-93934000D01*
X137769428Y-93962571D01*
X137807523Y-94019714D01*
X137845619Y-94134000D01*
X137845619Y-94276857D01*
X137807523Y-94391142D01*
X137769428Y-94448285D01*
X137731333Y-94476857D01*
X137655142Y-94505428D01*
X137578952Y-94505428D01*
X137502761Y-94476857D01*
X137464666Y-94448285D01*
X137426571Y-94391142D01*
X137388476Y-94276857D01*
X137388476Y-94134000D01*
X137426571Y-94019714D01*
X137464666Y-93962571D01*
X137502761Y-93934000D01*
X137578952Y-93905428D01*
X138226571Y-94505428D02*
X138378952Y-94505428D01*
X138455142Y-94476857D01*
X138493238Y-94448285D01*
X138569428Y-94362571D01*
X138607523Y-94248285D01*
X138607523Y-94019714D01*
X138569428Y-93962571D01*
X138531333Y-93934000D01*
X138455142Y-93905428D01*
X138302761Y-93905428D01*
X138226571Y-93934000D01*
X138188476Y-93962571D01*
X138150380Y-94019714D01*
X138150380Y-94162571D01*
X138188476Y-94219714D01*
X138226571Y-94248285D01*
X138302761Y-94276857D01*
X138455142Y-94276857D01*
X138531333Y-94248285D01*
X138569428Y-94219714D01*
X138607523Y-94162571D01*
D12*
X157542666Y-92814666D02*
X156842666Y-92814666D01*
X157542666Y-92414666D01*
X156842666Y-92414666D01*
X157176000Y-92081333D02*
X157176000Y-91848000D01*
X157542666Y-91748000D02*
X157542666Y-92081333D01*
X156842666Y-92081333D01*
X156842666Y-91748000D01*
X156876000Y-91081333D02*
X156842666Y-91148000D01*
X156842666Y-91248000D01*
X156876000Y-91348000D01*
X156942666Y-91414666D01*
X157009333Y-91448000D01*
X157142666Y-91481333D01*
X157242666Y-91481333D01*
X157376000Y-91448000D01*
X157442666Y-91414666D01*
X157509333Y-91348000D01*
X157542666Y-91248000D01*
X157542666Y-91181333D01*
X157509333Y-91081333D01*
X157476000Y-91048000D01*
X157242666Y-91048000D01*
X157242666Y-91181333D01*
X147930000Y-93630000D02*
X147863333Y-93596666D01*
X147763333Y-93596666D01*
X147663333Y-93630000D01*
X147596666Y-93696666D01*
X147563333Y-93763333D01*
X147530000Y-93896666D01*
X147530000Y-93996666D01*
X147563333Y-94130000D01*
X147596666Y-94196666D01*
X147663333Y-94263333D01*
X147763333Y-94296666D01*
X147830000Y-94296666D01*
X147930000Y-94263333D01*
X147963333Y-94230000D01*
X147963333Y-93996666D01*
X147830000Y-93996666D01*
X148263333Y-94296666D02*
X148263333Y-93596666D01*
X148663333Y-94296666D01*
X148663333Y-93596666D01*
X148996666Y-94296666D02*
X148996666Y-93596666D01*
X149163333Y-93596666D01*
X149263333Y-93630000D01*
X149330000Y-93696666D01*
X149363333Y-93763333D01*
X149396666Y-93896666D01*
X149396666Y-93996666D01*
X149363333Y-94130000D01*
X149330000Y-94196666D01*
X149263333Y-94263333D01*
X149163333Y-94296666D01*
X148996666Y-94296666D01*
X150063333Y-93248500D02*
X150763333Y-93248500D01*
X150630000Y-94296666D02*
X150396666Y-93963333D01*
X150230000Y-94296666D02*
X150230000Y-93596666D01*
X150496666Y-93596666D01*
X150563333Y-93630000D01*
X150596666Y-93663333D01*
X150630000Y-93730000D01*
X150630000Y-93830000D01*
X150596666Y-93896666D01*
X150563333Y-93930000D01*
X150496666Y-93963333D01*
X150230000Y-93963333D01*
X150763333Y-93248500D02*
X151430000Y-93248500D01*
X150896666Y-94263333D02*
X150996666Y-94296666D01*
X151163333Y-94296666D01*
X151230000Y-94263333D01*
X151263333Y-94230000D01*
X151296666Y-94163333D01*
X151296666Y-94096666D01*
X151263333Y-94030000D01*
X151230000Y-93996666D01*
X151163333Y-93963333D01*
X151030000Y-93930000D01*
X150963333Y-93896666D01*
X150930000Y-93863333D01*
X150896666Y-93796666D01*
X150896666Y-93730000D01*
X150930000Y-93663333D01*
X150963333Y-93630000D01*
X151030000Y-93596666D01*
X151196666Y-93596666D01*
X151296666Y-93630000D01*
X151430000Y-93248500D02*
X151963333Y-93248500D01*
X151496666Y-93596666D02*
X151896666Y-93596666D01*
X151696666Y-94296666D02*
X151696666Y-93596666D01*
X152563333Y-93596666D02*
X152963333Y-93596666D01*
X152763333Y-94296666D02*
X152763333Y-93596666D01*
X153196666Y-93930000D02*
X153430000Y-93930000D01*
X153530000Y-94296666D02*
X153196666Y-94296666D01*
X153196666Y-93596666D01*
X153530000Y-93596666D01*
X153796666Y-94263333D02*
X153896666Y-94296666D01*
X154063333Y-94296666D01*
X154130000Y-94263333D01*
X154163333Y-94230000D01*
X154196666Y-94163333D01*
X154196666Y-94096666D01*
X154163333Y-94030000D01*
X154130000Y-93996666D01*
X154063333Y-93963333D01*
X153930000Y-93930000D01*
X153863333Y-93896666D01*
X153830000Y-93863333D01*
X153796666Y-93796666D01*
X153796666Y-93730000D01*
X153830000Y-93663333D01*
X153863333Y-93630000D01*
X153930000Y-93596666D01*
X154096666Y-93596666D01*
X154196666Y-93630000D01*
X154396666Y-93596666D02*
X154796666Y-93596666D01*
X154596666Y-94296666D02*
X154596666Y-93596666D01*
X139034000Y-86250000D02*
X139067333Y-86183333D01*
X139067333Y-86083333D01*
X139034000Y-85983333D01*
X138967333Y-85916666D01*
X138900666Y-85883333D01*
X138767333Y-85850000D01*
X138667333Y-85850000D01*
X138534000Y-85883333D01*
X138467333Y-85916666D01*
X138400666Y-85983333D01*
X138367333Y-86083333D01*
X138367333Y-86150000D01*
X138400666Y-86250000D01*
X138434000Y-86283333D01*
X138667333Y-86283333D01*
X138667333Y-86150000D01*
X138367333Y-86583333D02*
X139067333Y-86583333D01*
X138367333Y-86983333D01*
X139067333Y-86983333D01*
X138367333Y-87316666D02*
X139067333Y-87316666D01*
X139067333Y-87483333D01*
X139034000Y-87583333D01*
X138967333Y-87650000D01*
X138900666Y-87683333D01*
X138767333Y-87716666D01*
X138667333Y-87716666D01*
X138534000Y-87683333D01*
X138467333Y-87650000D01*
X138400666Y-87583333D01*
X138367333Y-87483333D01*
X138367333Y-87316666D01*
X139067333Y-88450000D02*
X138367333Y-88683333D01*
X139067333Y-88916666D01*
X138634000Y-89150000D02*
X138634000Y-89683333D01*
X138367333Y-89416666D02*
X138900666Y-89416666D01*
X138400666Y-90516666D02*
X138367333Y-90616666D01*
X138367333Y-90783333D01*
X138400666Y-90850000D01*
X138434000Y-90883333D01*
X138500666Y-90916666D01*
X138567333Y-90916666D01*
X138634000Y-90883333D01*
X138667333Y-90850000D01*
X138700666Y-90783333D01*
X138734000Y-90650000D01*
X138767333Y-90583333D01*
X138800666Y-90550000D01*
X138867333Y-90516666D01*
X138934000Y-90516666D01*
X139000666Y-90550000D01*
X139034000Y-90583333D01*
X139067333Y-90650000D01*
X139067333Y-90816666D01*
X139034000Y-90916666D01*
X138367333Y-91216666D02*
X139067333Y-91216666D01*
X139034000Y-91916666D02*
X139067333Y-91850000D01*
X139067333Y-91750000D01*
X139034000Y-91650000D01*
X138967333Y-91583333D01*
X138900666Y-91550000D01*
X138767333Y-91516666D01*
X138667333Y-91516666D01*
X138534000Y-91550000D01*
X138467333Y-91583333D01*
X138400666Y-91650000D01*
X138367333Y-91750000D01*
X138367333Y-91816666D01*
X138400666Y-91916666D01*
X138434000Y-91950000D01*
X138667333Y-91950000D01*
X138667333Y-91816666D01*
D13*
%TO.C,U1*%
X141900000Y-86730000D02*
X141900000Y-89180000D01*
X145120000Y-88530000D02*
X145120000Y-86730000D01*
%TO.C,IC1*%
X151765000Y-84895000D02*
X148165000Y-84895000D01*
X151765000Y-84895000D02*
X153965000Y-84895000D01*
X151765000Y-90365000D02*
X149565000Y-90365000D01*
X151765000Y-90365000D02*
X153965000Y-90365000D01*
%TO.C,R1*%
X140732742Y-92597500D02*
X141207258Y-92597500D01*
X140732742Y-91552500D02*
X141207258Y-91552500D01*
%TO.C,R2*%
X144542742Y-91552500D02*
X145017258Y-91552500D01*
X144542742Y-92597500D02*
X145017258Y-92597500D01*
%TO.C,C1*%
X139600000Y-87891252D02*
X139600000Y-87368748D01*
X141070000Y-87891252D02*
X141070000Y-87368748D01*
%TO.C,C2*%
X145950000Y-87368748D02*
X145950000Y-87891252D01*
X147420000Y-87368748D02*
X147420000Y-87891252D01*
%TO.C,JP1*%
X155464000Y-87500000D02*
X157464000Y-87500000D01*
X155464000Y-90300000D02*
X155464000Y-87500000D01*
X157464000Y-90300000D02*
X155464000Y-90300000D01*
X157464000Y-87500000D02*
X157464000Y-90300000D01*
%TD*%
M02*
